<svg xmlns="http://www.w3.org/2000/svg" xmlns:xlink="http://www.w3.org/1999/xlink" viewBox="0 0 1366 768"><defs><style>.cls-1{fill:url(#linear-gradient);}.cls-2{opacity:0.71;}.cls-3{fill:url(#linear-gradient-2);}</style><linearGradient id="linear-gradient" x1="1975.15" y1="-1146.9" x2="2159.17" y2="-1146.9" gradientTransform="translate(-2257.65 590.35) rotate(27.59)" gradientUnits="userSpaceOnUse"><stop offset="0" stop-color="#f15a24"/><stop offset="0.6" stop-color="#ef5337"/><stop offset="1" stop-color="#dc0ee2"/></linearGradient><linearGradient id="linear-gradient-2" x1="-1984.63" y1="-1843.97" x2="-2139.55" y2="-1717.18" gradientTransform="matrix(-1, 0.08, -0.08, -1, -822.1, -1274.5)" gradientUnits="userSpaceOnUse"><stop offset="0.1" stop-color="#300ce5"/><stop offset="0.21" stop-color="#3b0ce5"/><stop offset="0.4" stop-color="#570de4"/><stop offset="0.59" stop-color="#7a0de4"/><stop offset="0.66" stop-color="#820de4"/><stop offset="0.77" stop-color="#990de3"/><stop offset="0.9" stop-color="#bd0ee3"/><stop offset="1" stop-color="#dc0ee2"/></linearGradient></defs><title>contacto</title><g id="_5._CONTACTO" data-name="5. CONTACTO"><rect width="1366" height="768"/><path class="cls-1" d="M6.5,618c-7.14-4.8-42.07-11.26-28.6-39.2C-19.24,569-4,544.21-4,544.21s6,16.66,9.94,19.86c3,5,10.94,13.61,17.18,14.62.46-.89,5-3.05-18.25-29.85C6.64,547.53,24,527.27,24,527.27s7.62,24.29,8.08,23.4c1.69,5.4,6.08,10,12.79,10.07,4.93-.81,9.87-1.62,4.25-12.45-3.51-4.09-21-24.53-4.76-34.08,3.16-1.73,36.59-20.37,41.14-24.76,2.7-.85.69,11.64,2,15.69s3.19,22,12.63,19c3.16-1.73,7.67-3.89,4.29-14.68-2.58-5.87-15.33-18.17-7.2-22.94,3.17-1.74,42.07-26.54,46.28-36.75.93-1.77,11.5-17.69,5.82-.34-2.31,4.43-3.48,19.61-1.32,24.13,2.19,2.27,7,10.41,10.49-11.45,1-4,3.06-21,31.27-23.15,2.24,0,36.24-.24,46.61-5,2.24,0,9.91-3.85,9.91-3.85s-10.15,17.26-11.58,22.16c-1.89,5.78-3,21-8.23,35.19-1,4-5.56,10.63-30.23,14.67,2.66,1.39,16,6.1,27.72.94-.51,3.12-25.31,39.8-36.65,48.55-1.35.42-19.5-10.19-23.13-7.57,1.35-.43,11.41,12.72,18.58,12-1.39,2.66-16.43,18.49-15.55,19-.88-.46-12.25-15.42-22-20.52-.5,3.13,12.13,22.14,17.07,21.33.84,2.7-14.66,19.42-15.59,21.19-2.7.85-13.76-6.06-23.43-15.62-1.81,1.31,10.4,19,18.42,20.9-.47.89-6.87,8.82-11.8,9.63l-7.4-11.76s1.58,12.1,5.54,15.31c0,2.23-21,25.12-24.64,27.74-1.31-1.82-9.17-12.69-33.18-20.72-1.81,1.31,23.35,20.09,22.88,21-3.16,1.73-25.25,11.63-30.61,11.08C60.7,651.37,51,646.28,51,646.28s-1.85,3.54,3.42,8.56c1.27,4-15.3,5.54-22.74-4-1.73-3.16-10.7-27-13.86-25.29-3.58.38-33,20-33.39,16.4-1.31-1.81-4.31-9-.69-11.64C-13.14,628.58,10.26,620.5,6.5,618Z"/><g class="cls-2"><path class="cls-3" d="M1463,319c-17.2-22.41-68.3-83-70.3-79.14s-50.55,7.87-59.55,14.54c-2.72,2,42-39.68,43.27-39.83-28.47-55.55-68.35-58.5-68.35-58.5l-18,14.48,1.65-25.92s-30.2-12.84-34.27-14.62c-33.56-18.33-44.63-11.77-44.63-11.77s4,51.58,2.35,56c.91,12,.71,43,1.27,46.59-5.52,47.9,36.33,98,35.17,102.06,26.44-14.16,69.32-11.75,72.29-11.87h.08c.1,0,.07,0-.08,0-54.54,7.54-70.76,25.85-72.35,24.63,19.61,39.76,53.91,75.08,54.81,74.42,10.47-14.89,72.29-22.95,72.29-22.95s-42.36,23.22-45.5,25.53c1.19,6.31-14.21,8.87-17.07,7.8,51.25,81.81,81,83.78,90,88.37,6.54,7.94,65.3-14.6,65.3-14.6s47.41,50.77,53.5,59,15.37,3,15.37,3-62.63-66.27-60.83-67.59c36.38-27.59,29.5-73.54,26.08-78.19s-34.65,11.16-34.65,11.16,26.59-21.17,29.9-20.42c2.16-11.15-23.69-51.89-26.11-53.3-17.1-2.56-61,29.79-60.13,29.13C1415.68,361.78,1460.35,320.11,1463,319ZM1335.22,196.66l3.31.74s-13.54,15.43-16.09,15.71ZM1259.55,246l-38,.07-1.16-3.09-.16-2,37.39,2.44ZM1354,378.07l-26.39,8.28-1.91-2.58,26.78-7.76Z"/></g></g></svg>