<svg xmlns="http://www.w3.org/2000/svg" xmlns:xlink="http://www.w3.org/1999/xlink" viewBox="0 0 1366 768"><defs><style>.cls-1{fill:url(#linear-gradient);}.cls-2{fill:url(#linear-gradient-2);}</style><linearGradient id="linear-gradient" x1="-3380.52" y1="-5782.24" x2="-3112.44" y2="-5782.24" gradientTransform="translate(-5310.92 437.57) rotate(117.36)" gradientUnits="userSpaceOnUse"><stop offset="0" stop-color="lime"/><stop offset="0.46" stop-color="#708473"/><stop offset="0.8" stop-color="#dc0ee2"/><stop offset="0.83" stop-color="#dc0ee2"/></linearGradient><linearGradient id="linear-gradient-2" x1="-5553.59" y1="-4249.39" x2="-5203.92" y2="-4249.39" gradientTransform="translate(-3642.31 -5184.61) rotate(-161.48)" gradientUnits="userSpaceOnUse"><stop offset="0.18" stop-color="lime"/><stop offset="0.3" stop-color="#1acd2a"/><stop offset="0.64" stop-color="#5d4d96"/><stop offset="0.79" stop-color="#781ac1"/></linearGradient></defs><title>servicios</title><g id="_5._CONTACTO" data-name="5. CONTACTO"><rect width="1366" height="768"/></g><g id="_3._PORTFOLIO" data-name="3. PORTFOLIO"><path class="cls-1" d="M1281.12,333.32c3-3.44,12.74-19.77,23.91-34.07,2-1.47,24.15-15.13,22.78,11.78-.55,3.48-9.7,16.32-17.73,19.7-1.5.48-25.13,14.61-26.12,14.1s20.28,11.75,25.74,13.32c4.48,1.06,19.88,5.26,36.54-10,3.52-1.95,10.22-17.32,12.44-33.74-.45-4-.33-21.21.82-23.43,1-2,4.27-20.38,15.61-10.75s26.42,72.67,26.42,72.67l6.49-.41s-24-65.16-28.88-75.2a19,19,0,0,1-.89-8l.24.75s39.06,42.18,72.43,9.23c4.06-5.43,13.31-7.54,14.89-49.41,0,0,.38-27.42-3.62-27-4.5,1.44-23.08,10.66-27.62,14.58s-20,25.41-29.54,26.77c-6.49.41-28,3.1-4.27-16,3.52-1.94,13.59-9.28,25.65-15.6,4-2.93,27.59-12.08,27.35-31s-19.32-45.15-21.3-46.18c-4,2.94-6.6,44.29-28.25,59.45-4,2.94-27.66,17.07-21.92-1.3,1-2,12.74-19.77,22.81-27.11,3-1,22.37-31.1,13.05-42.2-2-1-26.08-24.8-30-26.85s6.48,36-4.79,57.78c-.51,1-9.74,18.81-15.75,20.73,0,0-18,.74-8.22-18.07,1-2,14.75-21.24,18.1-47.12,0-2.49.24-17.45-1.23-19.47-2.49,0-42.2-13.05-42.2-13.05s-5.94-3.07,1.88,8.51c2.9,6.52,13.41,39.58,9.72,54-1.06,4.47-7.79,22.33-17.69,17.2-1.47-2-10.82-10.62-4.54-32.47,1.06-4.47,18.52-40.63-5.35-45.45-2-1-37.46,4.47-37.46,4.47s-9.43-3.62,4.74,17.51c.48,1.51,11.09,27.09,11,32.07,1,.51-2.88,27.39-15.54,5.77,0,0-4.13-26-4-33.47-.44-4,.79-20.93-20.72-15.74,0,0-22.06,8.67-31.49,5.05a94.51,94.51,0,0,1-10.93-3.14s-11.37-7.14-5.53,3.41c0,2.49,7.72,19.06,4.61,27.49-.55,3.48-7.14,11.37,6.72,18.54,4,2.05,31.28,9.91,39.17,16.5,4,2.05,14.65,22.64-3.76,19.4,0,0-19.77-12.74-25.2-16.81-3-1.53-8.88-7.1-8.88-7.1s-6.86-8.57-9.49,1.36c-1,2-7.62,46.27-1.68,49.35,2.9,1.5,48,1.06,48.35,1.17,0,0,15.37,6.69,21.28,12.26,1.47,2,12.25,15.13-3.22,15.91-3.48-.55-6.45-2.08-43.63-17.56-5.43-4.06-18,.75-27,1.13,1,.51,9.59,27.55,13.93,38.59,1.43,4.5,8.64,24.55,10.62,25.57,2.49,0,14.51-3.79,27.08-11.09,2.49,0,15.64-13.25,32.61-14.51,2.49,0,22.37,5.3,3.72,19.5-2,1.47-22.06,8.67-33.53,9-1-.51-24.49,3.65-24.49,3.65,1,.51,32.74,48.32,32.74,48.32S1274.5,343.7,1281.12,333.32Zm37.83-175,1,.51s5.94,3.08,1.88,8.5c-3.56,4.44-2,4-9.57,6.35C1309.76,173.65,1302.83,170.06,1319,158.32Zm-42.69,21.85c-2-1-14.27-13.66,14.28-4.54,0,0,15.6,7.44,5.59,9.8C1294.15,184.41,1285.14,187.27,1276.26,180.17Zm77.82,34a29.8,29.8,0,0,1,18.3-7.48s1.4,7-4.13,10.41c-3.52,1.95-11.81,7.07-12.81,6.56S1347,220.54,1354.08,214.16Zm-45.72-11.11s9.39,6.12,1.33,12c-3,1-6.53,2.9-16.94-1.23C1287.8,211.24,1282.54,194.72,1308.36,203.05Zm55.93,48.4c-1-.52-8.61-8.85,14.07-7.79,1.11.06,11,.65,4.4,6.05C1379.76,250.66,1373.64,260.05,1364.29,251.45Z"/><path class="cls-2" d="M-56.11,532c5.06,3.23,28,12.46,48.72,24,2.29,2.31,24.33,28.09-10.63,31.72-4.6,0-23-9.23-28.94-18.9-.92-1.84-23.87-29.46-23.41-30.84s-11.08,28.49-12,35.85c-.47,6-2.8,26.67,20.17,45.1,3.21,4.14,24.36,9.69,46,9.26,5.06-1.37,27.28-4.67,30.36-3.63,2.76.92,27.13,1.42,17,18S-57.26,691.1-57.26,691.1l1.83,8.28s79.16-44,91.13-52.3a24.91,24.91,0,0,1,10.12-2.74l-.92.46S-1.63,703.59,47.52,740c7.81,4.15,12.4,15.65,66.67,9.29,0,0,35.42-5,34.05-10.07-2.75-5.52-18.36-27.61-24.33-32.68s-36.76-20.75-40.42-32.71c-1.83-8.28-9.61-35.43,19.79-8.71,3.21,4.14,14.69,15.66,25.25,29.93,4.59,4.6,21.1,33.14,45.48,29s54.32-34,55.24-36.71c-4.59-4.61-58.4.37-82.28-24.5-4.59-4.6-27.55-32.23-2.72-28.51,2.76.92,28,12.45,39.52,24,1.83,3.68,44.57,22.6,57,8.36.92-2.76,26.73-38.59,28.58-44.11s-45.09,15.57-75.43,5.41c-1.38-.46-26.2-8.78-29.87-16.14,0,0-4.57-23,21.64-14.22,2.75.92,30.33,14.76,64.36,13.89,3.22-.46,22.54-3.19,24.84-5.48-.46-3.22,8.36-57,8.36-57s2.77-8.27-10.58,4.13c-7.83,5-48.33,25.22-67.64,23.35-6-.47-30.34-5.56-25.72-19.35,2.3-2.3,11.52-16.08,40.94-12.36,6,.47,56.09,15.72,57.51-16,.93-2.76-13.26-47.39-13.26-47.39s2.77-12.87-21.63,9.63c-1.84.92-32.68,19.72-39.12,20.64-.47,1.37-35.88,1.78-10.55-18.88,0,0,32.66-10.52,42.32-11.89,5.06-1.37,27.14-3.18,16.14-29.87,0,0-15.59-26.69-12.82-39.57,0-4.6,1.87-14.71,1.87-14.71s6.92-16.09-5.51-6.45c-3.22.46-23,13.77-34.51,11.45-4.6,0-16.09-6.92-22.55,12.38-1.85,5.52-6.5,42.3-13.42,53.79-1.85,5.52-26.25,23.41-25.75-1,0,0,12.46-28,16.61-35.84C157,427,163,418.25,163,418.25s9.68-10.56-3.66-12c-2.76-.93-61.16-.55-63.93,7.72-1.36,4.05,8.26,62.13,8.18,62.56,0,0-5.55,21.14-11.54,29.87-2.3,2.3-17,18.83-21.15-.95,0-4.6,1.39-8.73,13.88-59.76,4.15-7.81-4.56-23-6.84-34.5-.47,1.38-33.6,17.88-46.95,25.68C25.43,439.66,1,453,.11,455.72c.46,3.22,7.79,17.95,19.73,32.68.45,3.22,20.21,17.51,25.23,39.13.46,3.22-2.34,29.89-24.38,8.7-2.3-2.3-15.6-26.7-18.34-41.42C2.82,493.44-7.26,464-7.26,464-7.72,465.37-63,515.87-63,515.87S-70.81,525.52-56.11,532ZM177,545.66l-.46,1.38s-2.77,8.27-10.58,4.12c-6.43-3.69-5.52-1.85-10.1-11C155.43,536.89,158.67,527.24,177,545.66ZM140.32,495c.92-2.76,14.74-21.14,8.71,17.48,0,0-6.47,21.61-11.51,9.19C138.44,518.93,132.94,507.88,140.32,495ZM112.11,602.13a38.92,38.92,0,0,1,13.3,22.09s-8.74,3.21-14.25-3.24c-3.21-4.14-11.48-13.81-11-15.19S102.46,594.3,112.11,602.13ZM117.26,541s-6,13.33-15.19,4.12c-1.83-3.68-5-7.83-1.8-22.08C102.58,516.12,122.83,506,117.26,541ZM66.09,622.75c.46-1.37,9.68-12.86,12.85,16.58.16,1.44,1.36,14.26-6.91,6.89C70.2,642.54,56.87,636.54,66.09,622.75Z"/></g></svg>